<?xml version="1.0" encoding="UTF-8" standalone="no"?>
<!-- Created with Inkscape (http://www.inkscape.org/) -->

<svg width="200" height="200" viewBox="0 0 52.916665 52.916666" version="1.1" id="svg5" inkscape:version="1.4 (86a8ad7, 2024-10-11)" sodipodi:docname="icon.svg" inkscape:export-filename="editor.png" inkscape:export-xdpi="96" inkscape:export-ydpi="96" xml:space="preserve" xmlns:inkscape="http://www.inkscape.org/namespaces/inkscape" xmlns:sodipodi="http://sodipodi.sourceforge.net/DTD/sodipodi-0.dtd" xmlns:xlink="http://www.w3.org/1999/xlink" xmlns="http://www.w3.org/2000/svg" xmlns:svg="http://www.w3.org/2000/svg"><sodipodi:namedview id="namedview7" pagecolor="#505050" bordercolor="#ffffff" borderopacity="1" inkscape:showpageshadow="0" inkscape:pageopacity="0" inkscape:pagecheckerboard="1" inkscape:deskcolor="#505050" inkscape:document-units="mm" showgrid="false" inkscape:zoom="4.42" inkscape:cx="101.58371" inkscape:cy="107.1267" inkscape:window-width="1920" inkscape:window-height="1094" inkscape:window-x="-11" inkscape:window-y="-11" inkscape:window-maximized="1" inkscape:current-layer="layer1" showguides="false" /><defs id="defs2"><linearGradient id="linearGradient1" inkscape:collect="always"><stop style="stop-color:#00a6df;stop-opacity:1;" offset="0" id="stop1" /><stop style="stop-color:#d0005e;stop-opacity:1;" offset="1" id="stop2" /></linearGradient><inkscape:perspective sodipodi:type="inkscape:persp3d" inkscape:vp_x="-36.878698 : 69.742859 : 1" inkscape:vp_y="0 : 2743.0606 : 0" inkscape:vp_z="142.0769 : 69.742859 : 1" inkscape:persp3d-origin="52.599102 : 45.550591 : 1" id="perspective442" /><linearGradient inkscape:collect="always" xlink:href="#linearGradient1" id="linearGradient2" x1="26.45833" y1="8.2934313" x2="26.45833" y2="44.623234" gradientUnits="userSpaceOnUse" /></defs><g inkscape:label="Layer 1" inkscape:groupmode="layer" id="layer1"><rect style="fill:url(#linearGradient2);fill-opacity:1;stroke:#2d2d2d;stroke-width:4;stroke-linecap:square;stroke-linejoin:round;stroke-miterlimit:0;stroke-dasharray:none;stroke-opacity:1;paint-order:stroke fill markers" id="rect2" width="36.3298" height="36.329803" x="8.2934313" y="8.2934313" ry="18.1649" /><path d="M 16.425354,35.732407 H 14.238679 V 16.927003 h 10.470313 v 1.929419 h -8.283638 v 6.894457 h 7.781989 v 1.916556 H 16.425354 Z M 32.94118,21.377529 c 1.200527,0 2.229551,0.265831 3.08707,0.797494 0.857519,0.531662 1.513522,1.277704 1.968007,2.238126 0.454485,0.951847 0.681728,2.066622 0.681728,3.344326 v 1.324868 h -9.737134 c 0.02573,1.655013 0.437336,2.915566 1.234828,3.781661 0.797493,0.866095 1.920844,1.299142 3.370052,1.299142 0.89182,0 1.680738,-0.08146 2.366754,-0.244393 0.686015,-0.162929 1.397757,-0.403034 2.135224,-0.720317 v 1.877968 c -0.711741,0.317283 -1.419195,0.548813 -2.122361,0.694591 -0.694591,0.145778 -1.51781,0.218667 -2.469657,0.218667 -1.354881,0 -2.538258,-0.274406 -3.550131,-0.823218 -1.003297,-0.557388 -1.78364,-1.372032 -2.341028,-2.443931 -0.557387,-1.071899 -0.836081,-2.383904 -0.836081,-3.936015 0,-1.517809 0.252968,-2.829814 0.758904,-3.936014 0.514512,-1.114776 1.234829,-1.972296 2.16095,-2.572559 0.934696,-0.600264 2.032321,-0.900396 3.292875,-0.900396 z m -0.02573,1.74934 c -1.140501,0 -2.049471,0.373021 -2.726912,1.119063 -0.677441,0.746042 -1.080475,1.787928 -1.209103,3.125659 h 7.46042 c -0.0086,-0.840369 -0.141489,-1.577836 -0.398746,-2.2124 -0.248681,-0.64314 -0.630277,-1.140501 -1.144789,-1.492084 -0.514511,-0.360159 -1.174801,-0.540238 -1.98087,-0.540238 z" id="text1" style="-inkscape-font-specification:'Open Sans';fill:#1d1d1d;fill-opacity:1;stroke-width:4.97821;stroke-linejoin:round;stroke-miterlimit:0;paint-order:stroke fill markers" aria-label="Fe" sodipodi:nodetypes="cccccccccccsscsccssscccscssccsssccccs" /><path d="M 16.425354,35.732407 H 14.238679 V 16.927003 h 10.470313 v 1.929419 h -8.283638 v 6.894457 h 7.781989 v 1.916556 h -7.781989 z" id="text1-0" style="-inkscape-font-specification:'Open Sans';fill:#1d1d1d;fill-opacity:1;stroke-width:4.97821;stroke-linejoin:round;stroke-miterlimit:0;paint-order:stroke fill markers" aria-label="Fe" sodipodi:nodetypes="ccccccccccc" /></g></svg>
