<?xml version="1.0" encoding="UTF-8" standalone="no"?>
<!-- Created with Inkscape (http://www.inkscape.org/) -->

<svg width="200" height="200" viewBox="0 0 52.916667 52.916667" version="1.1" id="svg5" sodipodi:docname="settings.svg" inkscape:version="1.2.1 (9c6d41e410, 2022-07-14)" inkscape:export-filename="settings.png" inkscape:export-xdpi="48" inkscape:export-ydpi="48" xmlns:inkscape="http://www.inkscape.org/namespaces/inkscape" xmlns:sodipodi="http://sodipodi.sourceforge.net/DTD/sodipodi-0.dtd" xmlns="http://www.w3.org/2000/svg" xmlns:svg="http://www.w3.org/2000/svg">
  <sodipodi:namedview id="namedview7" pagecolor="#505050" bordercolor="#ffffff" borderopacity="1" inkscape:showpageshadow="0" inkscape:pageopacity="0" inkscape:pagecheckerboard="1" inkscape:deskcolor="#505050" inkscape:document-units="mm" showgrid="false" inkscape:zoom="3.3638608" inkscape:cx="85.764547" inkscape:cy="111.47905" inkscape:window-width="1920" inkscape:window-height="974" inkscape:window-x="-11" inkscape:window-y="-11" inkscape:window-maximized="1" inkscape:current-layer="g1079" />
  <defs id="defs2" />
  <g inkscape:label="Layer 1" inkscape:groupmode="layer" id="layer1">
    <g inkscape:label="Rendered Gears" transform="translate(15.951727,16.372621)" id="g1079" style="fill:#2f2f2f;fill-opacity:1">
      <path id="path453" style="opacity:0.891;fill:#ffffff;fill-opacity:0.8;stroke-width:3.33204;stroke-linejoin:round;stroke-miterlimit:0;stroke-opacity:0.8" d="m 10.566629,-9.7580377 a 20.293873,20.293873 0 0 0 -2.254954,0.140529 L 5.8520517,-4.0402953 A 14.808054,14.808054 0 0 0 0.445637,-0.81893164 L -5.7592725,-1.4934723 A 20.293873,20.293873 0 0 0 -8.014227,2.411801 l 3.9369822,5.3783089 a 14.808054,14.808054 0 0 0 -0.1643112,2.1973021 14.808054,14.808054 0 0 0 0.3286225,3.070025 l -4.1012935,5.602435 a 20.293873,20.293873 0 0 0 2.2549545,3.905272 l 7.3637358,-0.800656 a 14.808054,14.808054 0 0 0 3.6761025,2.050287 L 8.311675,30.68918 a 20.293873,20.293873 0 0 0 2.254954,0.14053 20.293873,20.293873 0 0 0 2.254956,-0.14053 l 3.031109,-6.874405 a 14.808054,14.808054 0 0 0 3.676102,-2.050287 l 7.363736,0.800656 a 20.293873,20.293873 0 0 0 2.254955,-3.905272 L 25.046193,13.057437 A 14.808054,14.808054 0 0 0 25.374816,9.987412 14.808054,14.808054 0 0 0 25.209785,7.7908305 l 3.947792,-5.3920014 a 20.293873,20.293873 0 0 0 -2.250631,-3.8944634 l -6.217161,0.67670266 A 14.808054,14.808054 0 0 0 15.276884,-4.050385 L 12.81582,-9.6319217 a 20.293873,20.293873 0 0 0 -2.249191,-0.12611 z m 0,11.0254257 a 9.2687454,9.2687454 0 0 1 0.338713,0.00576 9.2687454,9.2687454 0 0 1 0.33799,0.018737 9.2687454,9.2687454 0 0 1 0.337271,0.030989 9.2687454,9.2687454 0 0 1 0.335829,0.04324 9.2687454,9.2687454 0 0 1 0.333667,0.055491 9.2687454,9.2687454 0 0 1 0.331504,0.067022 9.2687454,9.2687454 0 0 1 0.329344,0.079994 9.2687454,9.2687454 0 0 1 0.32574,0.091524 9.2687454,9.2687454 0 0 1 0.322857,0.1030545 9.2687454,9.2687454 0 0 1 0.317813,0.1153056 9.2687454,9.2687454 0 0 1 0.314209,0.126836 9.2687454,9.2687454 0 0 1 0.309164,0.1383677 9.2687454,9.2687454 0 0 1 0.304119,0.1491772 9.2687454,9.2687454 0 0 1 0.298356,0.1599873 9.2687454,9.2687454 0 0 1 0.291867,0.1715178 9.2687454,9.2687454 0 0 1 0.286104,0.1816071 9.2687454,9.2687454 0 0 1 0.278897,0.1916964 9.2687454,9.2687454 0 0 1 0.27169,0.2017856 9.2687454,9.2687454 0 0 1 0.263762,0.211875 9.2687454,9.2687454 0 0 1 0.256557,0.2212436 9.2687454,9.2687454 0 0 1 0.247907,0.2306123 9.2687454,9.2687454 0 0 1 0.23926,0.2392601 9.2687454,9.2687454 0 0 1 0.230613,0.247908 9.2687454,9.2687454 0 0 1 0.221243,0.2565561 9.2687454,9.2687454 0 0 1 0.211875,0.2637628 9.2687454,9.2687454 0 0 1 0.201786,0.2716899 9.2687454,9.2687454 0 0 1 0.191696,0.2788967 9.2687454,9.2687454 0 0 1 0.181608,0.2861033 9.2687454,9.2687454 0 0 1 0.171517,0.2918685 9.2687454,9.2687454 0 0 1 0.159988,0.2983546 9.2687454,9.2687454 0 0 1 0.149177,0.3041198 9.2687454,9.2687454 0 0 1 0.138368,0.3091645 9.2687454,9.2687454 0 0 1 0.126836,0.314209 9.2687454,9.2687454 0 0 1 0.115305,0.3178125 9.2687454,9.2687454 0 0 1 0.103056,0.3228571 9.2687454,9.2687454 0 0 1 0.09152,0.3257397 9.2687454,9.2687454 0 0 1 0.07999,0.3293431 9.2687454,9.2687454 0 0 1 0.06702,0.331505 9.2687454,9.2687454 0 0 1 0.05549,0.333667 9.2687454,9.2687454 0 0 1 0.04324,0.3358292 9.2687454,9.2687454 0 0 1 0.03099,0.33727 9.2687454,9.2687454 0 0 1 0.01874,0.337991 9.2687454,9.2687454 0 0 1 0.0058,0.338711 9.2687454,9.2687454 0 0 1 -0.05044,0.968573 9.2687454,9.2687454 0 0 1 -0.15206,0.958481 9.2687454,9.2687454 0 0 1 -0.250791,0.936862 9.2687454,9.2687454 0 0 1 -0.348081,0.905874 9.2687454,9.2687454 0 0 1 -0.440325,0.864796 9.2687454,9.2687454 0 0 1 -0.528246,0.813629 9.2687454,9.2687454 0 0 1 -0.610401,0.753813 9.2687454,9.2687454 0 0 1 -0.686072,0.686071 9.2687454,9.2687454 0 0 1 -0.753813,0.610402 9.2687454,9.2687454 0 0 1 -0.813629,0.528245 9.2687454,9.2687454 0 0 1 -0.864795,0.440325 9.2687454,9.2687454 0 0 1 -0.905874,0.348082 9.2687454,9.2687454 0 0 1 -0.936863,0.250791 9.2687454,9.2687454 0 0 1 -0.958481,0.152059 9.2687454,9.2687454 0 0 1 -0.968572,0.05045 A 9.2687454,9.2687454 0 0 1 9.5980531,19.753832 9.2687454,9.2687454 0 0 1 8.6395711,19.601773 9.2687454,9.2687454 0 0 1 7.702709,19.350982 9.2687454,9.2687454 0 0 1 6.7968356,19.0029 9.2687454,9.2687454 0 0 1 5.9320398,18.562575 9.2687454,9.2687454 0 0 1 5.1184111,18.03433 9.2687454,9.2687454 0 0 1 4.3645975,17.423928 9.2687454,9.2687454 0 0 1 3.6785261,16.737857 9.2687454,9.2687454 0 0 1 3.0681246,15.984044 9.2687454,9.2687454 0 0 1 2.5398784,15.170415 9.2687454,9.2687454 0 0 1 2.0995533,14.30562 9.2687454,9.2687454 0 0 1 1.7514729,13.399746 9.2687454,9.2687454 0 0 1 1.5006823,12.462883 9.2687454,9.2687454 0 0 1 1.3486223,11.504402 9.2687454,9.2687454 0 0 1 1.2981763,10.53583 9.2687454,9.2687454 0 0 1 1.3486223,9.567259 9.2687454,9.2687454 0 0 1 1.5006823,8.608777 9.2687454,9.2687454 0 0 1 1.7514729,7.671915 9.2687454,9.2687454 0 0 1 2.0995533,6.7660415 9.2687454,9.2687454 0 0 1 2.5398784,5.9012457 9.2687454,9.2687454 0 0 1 3.0681246,5.0876171 9.2687454,9.2687454 0 0 1 3.6785261,4.3338035 9.2687454,9.2687454 0 0 1 4.3645975,3.6477321 9.2687454,9.2687454 0 0 1 5.1184111,3.0373305 9.2687454,9.2687454 0 0 1 5.9320398,2.5090844 9.2687454,9.2687454 0 0 1 6.7968356,2.0687592 9.2687454,9.2687454 0 0 1 7.702709,1.7206789 9.2687454,9.2687454 0 0 1 8.6395711,1.4698882 9.2687454,9.2687454 0 0 1 9.5980531,1.3178283 9.2687454,9.2687454 0 0 1 10.566624,1.2673823 Z" />
    </g>
  </g>
</svg>
